# xmcd CD database file
#
# Track frame offsets:
#	150
#	13620
#	27325
#	42067
#	53477
#	65162
#	80165
#	94595
#	104450
#	117652
#	130900
#	142650
#	163200
#	177490
#	191677
#	204685
#	234132
#	245197
#	257885
#	269540
#	283042
#	292957
#	305427
#	318955
#
# Disc length: 4481 seconds
#
# Revision: 6
# Processed by: cddbd v1.5.1PL2 Copyright (c) Steve Scherf et al.
# Submitted via: CDex 1.51
#
DISCID=66117f18
DTITLE=Saxophone - Triumphs of Jazz Vol. 16, 
DYEAR=2000
DGENRE=Jazz
TTITLE0=Johnny Hodges - The mood to be wooed - 1944
TTITLE1=Benny Carter and His Orchestra - Cocktails for two - 1940
TTITLE2=Willie Smith - Ain't she sweet - 1945
TTITLE3=Earl Bostic and His Orchestra - 8,45 stomp - 1947
TTITLE4=Sonny Stitt - Serenade to a square - 1946
TTITLE5=Bud Freeman - The Eel - 1933
TTITLE6=Herschel Evans - Blue and sentimental - 1937
TTITLE7=Chu Berry - Sittin' in - 1938
TTITLE8=Ben Webster and His Orchestra - I got it bad - 1946
TTITLE9=Don Byas and His Quartet - September in the rain - 1945
TTITLE10=Arnett Cobb and His Orchestra - Go, Red, go - 1947
TTITLE11=Ike Quebec and His Quintet - Blue Harlem - 1944
TTITLE12=Lucky Thompson and His Lucky Seven - Just one more chance - 1947
TTITLE13=Illinois Jacquet - Black Velvet - 1949
TTITLE14=Gene Ammons and His Orchestra - It's the talk of the town - 1948
TTITLE15=Dexter Gordon and Wardell Gray - The chase - 1947
TTITLE16=Al Sears - The suburbanite - 1946
TTITLE17=Paul Gonsalves - Sugar - 1947
TTITLE18=Flip Pjhilips and His Hiptet - Stompin' at the savoy - 1945
TTITLE19=Eddie 'Lockjaw' Davis and His Quintet - Surgery - 1946
TTITLE20=Stan Getz and His Quartet - Long island sound - 1949
TTITLE21=Sonny Rollins - Autobahn - 1949
TTITLE22=Serge Chaloff - Blue Serge - 1946
TTITLE23=Harry Carney - Frustration - 1945
EXTD=YEAR: 2000
EXTT0=
EXTT1=
EXTT2=
EXTT3=
EXTT4=
EXTT5=
EXTT6=
EXTT7=
EXTT8=
EXTT9=
EXTT10=
EXTT11=
EXTT12=
EXTT13=
EXTT14=
EXTT15=
EXTT16=
EXTT17=
EXTT18=
EXTT19=
EXTT20=
EXTT21=
EXTT22=
EXTT23=
PLAYORDER=
